<?xml version="1.0" encoding="utf-8"?>
<!-- Generator: Adobe Illustrator 23.0.1, SVG Export Plug-In . SVG Version: 6.00 Build 0)  -->
<svg version="1.1" id="logo_x5F_bl_x5F_evolution" xmlns="http://www.w3.org/2000/svg" xmlns:xlink="http://www.w3.org/1999/xlink"
	 x="0px" y="0px" viewBox="0 0 157 135" style="enable-background:new 0 0 157 135;" xml:space="preserve">
<style type="text/css">
	.st0{fill-rule:evenodd;clip-rule:evenodd;fill:#86BE5A;}
	.st1{filter:url(#Adobe_OpacityMaskFilter);}
	.st2{fill-rule:evenodd;clip-rule:evenodd;fill:#FFFFFF;}
	.st3{mask:url(#mask-2_1_);fill-rule:evenodd;clip-rule:evenodd;fill:#86BE5A;}
	.st4{filter:url(#Adobe_OpacityMaskFilter_1_);}
	.st5{mask:url(#mask-4_1_);fill-rule:evenodd;clip-rule:evenodd;fill:#3F99B7;}
	.st6{fill-rule:evenodd;clip-rule:evenodd;fill:#3F99B7;}
</style>
<g id="evolution">
	<path id="Fill-1" class="st0" d="M18,119.4l0.8-0.9l-1.1,1L18,119.4z M16.1,120.9l0.2-0.6h-0.1l-0.3,0.6H16.1z M15,109.8
		c0.1,0,0.3-0.1,0.4-0.4c0.1-0.3,0.2-0.5,0.2-0.6l-0.1-0.1c-0.1,0-0.1,0-0.2,0.1L15,109.8z M15,99.1l0.2,0.1
		c0.3-0.3,0.4-0.6,0.4-0.7c0-0.1,0-0.2-0.1-0.2L15,99.1z M16.3,98c-0.2,0.3-0.5,0.7-0.8,1.2l-0.1,0.1c0,0.1-0.1,0.1-0.1,0.2
		l-0.1,0.1l-0.2,0.1l-0.2,0.5l0.4,0.1c0.3-0.5,0.7-1.1,1.2-2.1L16.3,98z M14,111.4c0.1,0,0.3-0.2,0.4-0.5c0.1-0.3,0.2-0.6,0.2-0.7
		v-0.1c-0.6,0.5-1,0.9-1.2,1.3H14z M17.2,98.1L17.2,98.1c-0.1,0.2-0.3,0.4-0.6,0.8c-0.3,0.4-0.5,0.6-0.7,0.8l-0.1,0.2
		c-0.1,0.1-0.2,0.2-0.4,0.3c-0.1,0.2-0.3,0.3-0.4,0.4c-0.1,0.1-0.2,0.2-0.4,0.3c-0.1,0.1-0.3,0.2-0.4,0.2v-0.3l-0.3,0.3l-0.6-0.1
		c0,0.1-0.1,0.2-0.3,0.3c-0.2,0.1-0.2,0.2-0.3,0.2l-0.4,0.5c-0.2,0.2-0.3,0.4-0.3,0.5l-0.1,0.7l-0.4,0.6v-0.2l-0.3,0.1h-0.1l0.1-0.3
		h-0.2v0.3c-0.4,0-0.7-0.1-0.8-0.2c-0.2-0.1-0.3-0.4-0.3-0.8c0-0.8,0.5-1.7,1.4-2.7l0.1-0.1l-0.1-0.1l0.7-1.2l0.2-0.1l0.1-1.6
		c0-0.3,0.4-0.6,1-0.9c0.6-0.2,1.1-0.3,1.6-0.3c1.2,0,2.1,0.4,2.7,1.2L17.2,98.1z M11.9,110.4c-0.1,0-0.2,0-0.4,0.1
		c-0.2,0.1-0.4,0.2-0.6,0.3c-0.2,0.1-0.4,0.2-0.4,0.2c-0.8,0.4-1.6,1-2.3,1.8c-0.7,0.8-1.3,1.6-1.6,2.3c0,0.1-0.2,0.3-0.4,0.7
		c-0.3,0.3-0.4,0.6-0.4,0.8v0.1L8,115c0.4-0.3,0.9-0.8,1.5-1.5c0.6-0.7,1-1.1,1.1-1.2c0.9-0.9,1.3-1.5,1.3-1.8V110.4z M5,114.5
		c0,0.3-0.3,1.1-0.9,2.3l0.5,0.1l0.1,0.5c0.9-1.3,1.4-2.3,1.6-3c-0.2,0.2-0.4,0.5-0.6,1c-0.3,0.5-0.5,0.8-0.8,0.9
		c0.1-0.3,0.4-0.9,1-1.6c0.5-0.7,0.8-1.3,1-1.7c0-0.1,0.2-0.4,0.6-0.7c0.3-0.4,0.5-0.8,0.4-1.1l-0.3,0.5c-0.2,0.3-0.4,0.7-0.7,1.1
		c-0.2,0.4-0.4,0.6-0.4,0.7v0.1L5,114.5z M2.9,119.9c0.2,0,0.4-0.2,0.5-0.5c0.1-0.3,0.2-0.6,0.2-0.8C3.2,119.4,2.9,119.9,2.9,119.9
		L2.9,119.9z M2.7,124.8c0.1-0.7,0.1-1.2,0.2-1.5c0.1-0.5,0.3-1.3,0.6-2.4c0.3-1.1,0.5-1.9,0.6-2.5c-0.6,0.9-0.8,1.7-0.8,2.4
		c0,0-0.1,0.2-0.3,0.5c-0.2,0.3-0.3,0.5-0.3,0.8c0,0.2-0.1,0.5-0.2,0.9s-0.2,0.7-0.2,0.9c0,0.1,0,0.3,0,0.5c0,0.2,0,0.3,0,0.5
		c0,0.6,0.1,1.1,0.2,1.6C2.6,126.1,2.7,125.5,2.7,124.8L2.7,124.8z M20.3,118.8c-0.1,0.2-0.4,0.5-0.8,1.1c-0.4,0.5-0.8,0.8-0.9,0.9
		c-0.1,0.1-0.4,0.3-0.7,0.6c-0.3,0.3-0.5,0.5-0.6,0.5c0-0.2,0.1-0.4,0.4-0.7c0.3-0.3,0.4-0.5,0.4-0.7c0,0,0-0.1-0.1-0.1
		c-0.1,0-0.1,0.1-0.1,0.2c-0.1,0.1-0.2,0.3-0.4,0.5c-0.2,0.2-0.3,0.4-0.4,0.5c-0.1,0.1-0.2,0.2-0.4,0.4c-0.1,0.2-0.3,0.3-0.5,0.4
		c-0.2,0.1-0.4,0.3-0.6,0.4c-0.9,0.5-1.4,1.1-1.7,1.8c-0.1,0.3-0.5,0.8-1.2,1.5c-0.7,0.7-1.2,1.1-1.4,1.1l-0.3,0.3
		c0,0-0.5,0.3-1.3,0.9c-0.9,0.6-1.4,1-1.5,1v-0.2c-0.1,0.2-0.5,0.3-1.1,0.5c-0.6,0.2-1.1,0.3-1.3,0.3c-1.5,0-2.9-0.6-4-1.9
		c-1.1-1.3-1.7-2.6-1.7-4c0-1.6,0.4-3.5,1.3-5.7c0.9-2.2,1.9-4,3-5.6c0,0,0.2-0.2,0.4-0.6c0.2-0.3,0.4-0.6,0.6-0.9
		c0.2-0.2,0.3-0.3,0.4-0.3c0.1-0.3,0.8-1.1,2.1-2.3c1.3-1.2,2.3-2.1,3.2-2.7c0.9-0.8,1.7-1.1,2.4-1.1c1.1,0,2.1,0.3,3.2,1
		c1,0.6,1.6,1.4,1.6,2.3c0,0.5-0.4,1.2-1.2,2c-0.8,0.9-1.3,1.6-1.5,2.2c0,0.1-0.3,0.5-0.9,1.1c-0.5,0.6-0.8,1-0.9,1.1
		c-0.1,0.1-0.5,0.6-1.3,1.4c-0.8,0.8-1.3,1.4-1.6,1.8c-0.4,0.6-1.3,1.4-2.5,2.2C7,120.6,6,121,5.3,121c-0.5,0-0.9-0.2-1.2-0.5
		c0,0.3-0.2,0.7-0.6,1.4c-0.4,0.6-0.6,1.8-0.6,3.8c0,1.4,0.5,2.1,1.5,2.1c0.7,0,1.6-0.4,2.9-1.3c2.1-1.6,4.5-3.7,7.2-6.5
		c2-2.1,3.1-3.3,3.4-3.7c1.1,0.4,1.6,0.7,1.6,0.9L20.3,118.8z"/>
	<path id="Fill-3" class="st0" d="M37.1,110.9c0,0,0.1,0,0.2-0.1c0.1-0.1,0.2-0.1,0.2-0.2c-0.1,0-0.2,0-0.4,0.1V110.9z M36.1,112.2
		l0.2-0.5l-0.3,0.2L36.1,112.2z M39,108l1.1-1.7v-0.1l-0.6,0.5l-0.4,0.6c-0.3,0.4-0.6,0.6-0.8,0.7c-0.2,0.1-0.4,0.3-0.6,0.7
		c-0.2,0.4-0.4,0.6-0.5,0.6l-1.2,1.9c0.2-0.1,0.4-0.3,0.7-0.6c0.3-0.3,0.6-0.7,0.9-1.1c0.3-0.4,0.5-0.7,0.6-0.7l0.2,0.5v-0.7
		l0.4-0.6L39,108L39,108z M35.5,114.2v-0.1V114.2L35.5,114.2z M34,114.3l0.1,0.1c0.1,0,0.2,0,0.4-0.1c0.2-0.1,0.3-0.2,0.3-0.3
		c0-0.1,0-0.1-0.1-0.1c-0.2,0-0.4,0.1-0.6,0.3V114.3z M32.9,116c0.6-0.5,0.9-0.9,0.9-1.2c0,0,0-0.1-0.1-0.1
		c-0.1,0.3-0.3,0.5-0.6,0.7c-0.3,0.2-0.4,0.4-0.4,0.5L32.9,116z M32,116.8l0.4-0.5c-0.1,0-0.2,0-0.4,0.1c-0.1,0.1-0.2,0.2-0.2,0.3
		C31.9,116.8,31.9,116.8,32,116.8L32,116.8z M31.5,117.7h-0.2l0.4-1.1c0.3,0,0.5-0.2,0.6-0.7c0.1-0.4,0.2-0.7,0.3-0.8
		c0-0.1,0.1-0.1,0.2-0.2c0.1,0,0.1-0.1,0.2-0.1c0.8-0.6,1.2-1.1,1.2-1.7V113c0-0.1-0.1-0.1-0.1-0.2c-0.1,0-0.2,0.1-0.4,0.3
		c-0.1,0.2-0.2,0.4-0.3,0.6c-0.1,0.2-0.2,0.4-0.2,0.5c-0.2,0.3-0.5,0.7-1,1.1l-0.1-0.4h-0.1l-0.4,0.7c-0.3,0.4-0.4,0.7-0.6,0.9
		c-0.2,0-0.4,0.5-0.6,1.3c-0.2,0.8-0.3,1.3-0.3,1.5C31.1,118.4,31.5,117.8,31.5,117.7L31.5,117.7z M30.2,119.5l-0.3,0.1
		c0-0.1,0-0.2,0.1-0.4c0-0.2,0.1-0.3,0.1-0.4c0-0.3-0.1-0.5-0.4-0.5l-0.1,0.3c0,0.6-0.1,0.9-0.4,0.9l-0.3,0.2v0.1
		c0,0-0.1,0.1-0.2,0.2l-0.6,0.6c-0.8,0.9-1.2,1.5-1.4,1.8l-0.5,1c0,0.2-0.1,0.5-0.3,0.9c-0.2,0.4-0.3,0.6-0.3,0.8l0.7-1.1l0.7-1.2
		c0,0,0.1-0.2,0.2-0.4c0.1-0.2,0.1-0.5,0.2-0.7c0.1-0.2,0.2-0.3,0.3-0.3l-0.3,0.9c0,0,0.2-0.4,0.5-1.1s0.5-1.1,0.7-1.1
		c0,0.2-0.2,0.7-0.6,1.5l-0.7,1.1h0.1c0.2,0,0.5-0.4,1-1.3c0.5-0.9,0.7-1.4,0.7-1.6v-0.1L30.2,119.5z M26.5,125.4L26.5,125.4
		c-0.7,0.6-1.1,1.1-1,1.6C26.1,126.4,26.5,125.8,26.5,125.4L26.5,125.4z M25.3,124.4c0,0.2-0.1,0.4-0.4,0.8
		c-0.2,0.4-0.4,0.7-0.4,0.9c0-0.2,0.2-0.4,0.5-0.7c0.3-0.3,0.4-0.5,0.4-0.7C25.4,124.6,25.4,124.5,25.3,124.4L25.3,124.4z M20,124.1
		c0.3-1,0.4-1.7,0.4-2.1c0-0.2,0-0.3-0.1-0.4c0,0.1,0,0.2,0,0.3c0,0.2,0,0.3,0,0.3c0,0.2-0.1,0.4-0.2,0.8c-0.1,0.4-0.2,0.6-0.2,0.8
		V124.1z M19.3,121.9l-0.3-0.1v0.1l-0.1,0.1L19.3,121.9z M19.7,125c-0.1,0-0.2,0.5-0.5,1.5c-0.2,1-0.4,1.6-0.4,1.7l-0.1,1.7l0.7-0.7
		l-0.6,0.2c0-0.1,0.1-0.4,0.2-1.1s0.2-1.3,0.4-1.8c0.1-0.5,0.2-0.8,0.3-0.9L19.7,125z M18.4,125.5l-0.1,0.9
		C18.3,126,18.3,125.7,18.4,125.5L18.4,125.5z M18.7,122.7c-0.1,0.7-0.2,1.2-0.4,1.5l0.6-0.4L18.7,122.7z M18,127.4l0.1-0.1
		c0.2-0.6,0.3-1.1,0.3-1.4v-0.5v-0.1v0.1l-0.1-0.9c0.1,0.5-0.1,1.1-0.4,1.6L18,127.4z M30,120.8c-0.4,0.3-0.6,0.8-0.8,1.3H29
		c-0.2,0-0.4,0.2-0.5,0.7c-0.2,0.4-0.3,0.8-0.3,1c0,0.2-0.1,0.4-0.2,0.7c-0.1,0.2-0.3,0.4-0.6,0.7c-0.2,0.2-0.4,0.4-0.5,0.5
		l-1.9,2.5c0,0.1,0,0.2-0.1,0.3c-0.7,1.3-1.1,2-1.1,2.2c0,0.8-0.4,1.5-1.2,2.2c-0.8,0.7-1.6,1.1-2.5,1.1c-1.2,0-2.1-0.3-2.9-0.8
		c-0.8-0.5-1.2-1.3-1.2-2.3c0-1.2,0.3-2.8,0.9-4.7c0-0.2,0.1-0.6,0.2-1.4c0.1-0.7,0.2-1.3,0.4-1.6c0.1-0.3,0.4-1.4,0.9-3.3l0.4-1.6
		l1.5-5.6c0.1-0.5,0.3-1.1,0.4-1.9c0.2-0.8,0.3-1.6,0.5-2.2c0.2-0.7,0.4-1.3,0.6-1.9c0.1,0,0.5,0.2,1.2,0.3c0.7,0.2,1.4,0.4,1.9,0.6
		c0.5,0.2,0.8,0.5,0.8,0.7c0,0.4-0.1,0.9-0.3,1.6s-0.3,1.2-0.4,1.5l-0.2,1.8c0,0-0.1,0.3-0.2,0.8c-0.1,0.5-0.3,1-0.5,1.5
		c-0.2,0.5-0.3,0.8-0.3,0.9c-0.1,0.3-0.3,0.8-0.5,1.5c-0.3,0.7-0.5,1-0.7,0.9c0.3-0.7,0.4-1.1,0.4-1.2v-0.1
		c-0.4,0.7-0.6,1.2-0.6,1.4v0.1c-0.1,0-0.2,0.2-0.3,0.5c-0.1,0.3-0.2,0.7-0.3,1.1l-0.1,0.6c-0.1,0.5-0.3,1.3-0.5,2.2
		c-0.3,1-0.4,1.5-0.4,1.7l-1.1,4.7v0.1c0,0,0.8-1,2.3-3c0.8-1,1.6-2.2,2.6-3.8c1.2-1.8,2.4-3.4,3.7-4.9c0.1,0,0.3-0.3,0.7-0.8
		c0.4-0.5,0.6-0.8,0.6-0.8c0.2-0.2,0.8-0.9,1.6-2c0.9-1.1,1.8-2.2,2.7-3.4c0.9-1.1,1.9-2.3,2.9-3.5c1-1.2,1.9-2.2,2.7-3
		c0.8-0.8,1.3-1.3,1.6-1.3c0,0,0.1,0,0.1,0.1l0.7,0.2l2.6,0.7v1.1h-0.1c0,0.1-0.1,0.3-0.6,0.6c-0.4,0.3-0.7,0.5-0.9,0.5
		c0,0-0.1,0-0.1-0.1v-0.1l-0.7,0.5c-0.8,1.3-1.7,2.3-2.8,3.1l-0.2-0.3l-0.4,0.5v0.1L39,110l-0.2,0.3l-0.7,0.9l-0.1,0.9l-1,0.1
		l-0.6,1.5l-1.3,1.3c-0.3,0.1-0.4,0.2-0.6,0.1l-1.5,2.1c0,0.2-0.3,0.5-0.7,1.2c-0.4,0.6-0.7,1-0.8,1l0.4-1v-0.1
		c-0.2,0-0.4,0.2-0.7,0.7c-0.2,0.5-0.4,0.8-0.6,0.8L30,120.8L30,120.8z"/>
	<path id="Fill-5" class="st0" d="M47.8,120.3c0,0.2,0,0.3,0,0.4l0.3-0.6c0.2-0.6,0.3-1.1,0.3-1.5v-0.2h-0.1
		c-0.4,0.3-0.6,0.9-0.6,1.5C47.8,120,47.8,120.2,47.8,120.3L47.8,120.3z M47.7,123.8c0.1-0.2,0.3-0.7,0.6-1.4
		c0.3-0.8,0.6-1.3,0.9-1.7c0.1-0.2,0.2-0.7,0.2-1.6c0-0.6,0-1.1-0.1-1.4l-0.3,0.1c-0.2,1.7-0.5,3.1-1,4.1l-0.6,1.1
		c-0.4,0.7-0.7,1.2-0.8,1.7c-0.2,0.4-0.3,0.8-0.3,1.2v0.2c0.2,0,0.3-0.2,0.3-0.5c0.3-0.6,0.6-1.1,1-1.5
		C47.6,124.1,47.7,124,47.7,123.8L47.7,123.8z M39.3,114.1c0,0-0.2,0.1-0.3,0.2L39.3,114.1z M38.4,123.7l-0.2-0.5L38.4,123.7
		L38.4,123.7z M37.7,117.9L37.7,117.9l0.1-0.2L37.7,117.9z M37.4,125L37.4,125c0-0.1,0.1-0.2,0.1-0.2L37.4,125z M37.9,118.1
		c-0.1,0.5-0.3,1-0.8,1.8l0.3-0.1l0.7,0.3c0.3-0.4,0.4-0.7,0.4-1c0-0.1,0-0.2-0.1-0.4l0.5-0.5c0,0.3-0.1,0.8-0.2,1.2
		c-0.2,0.5-0.2,0.8-0.2,0.9c-0.2,0.4-0.5,1.1-0.8,2h0.1l-0.3,0.5c-0.1,0.3-0.2,0.6-0.2,0.9c0,0,0,0.1,0,0.2c0,0.1,0,0.2,0,0.3h0.1
		l0.3-1.1l0.4-0.2c0.1-0.1,0.3-0.3,0.4-0.7c0.1-0.4,0.3-0.8,0.4-1.2c0.1-0.5,0.2-0.7,0.3-0.7l-0.2,1.7c0,0,0,0.3-0.1,0.8
		c-0.1,0.5-0.1,1-0.2,1.5c-0.1,0.5-0.1,0.9-0.1,1v0.3l0.6-1.2c0-0.4,0-0.7,0.1-0.9c0.1-0.2,0.1-0.5,0.3-0.8c0.1-0.3,0.2-0.6,0.3-0.8
		c0,0.4-0.1,1.2-0.3,2.2c-0.2,1.1-0.3,1.8-0.3,2.3c0,0,0,0.2,0.1,0.3c0.1,0.2,0.1,0.4,0.2,0.6c0.1,0.2,0.1,0.4,0.1,0.4
		c0.1,0,0.5-0.4,1.2-1.1c0.6-0.7,1-1.1,1.2-1.1c1.1-1.5,1.8-2.6,2-3.3c0.1-0.1,0.4-0.7,0.8-1.9c0.4-1.1,0.7-1.8,0.7-1.8
		c0-1.6-0.3-2.3-0.8-2.3c-0.1,0-0.4,0.1-0.8,0.3c-0.4,0.2-0.8,0.3-1.1,0.3c-0.3,0-1.3,0.1-2.9,0.3l-0.1,0.1v0.2l-0.1,0.5
		c-0.3,0.8-0.4,1.2-0.4,1.3L39,120h-0.1c0.6-1.3,1-2.5,1-3.5c0-0.2,0-0.3-0.1-0.3l-1-0.1l0.2-0.1l0.5-1.1l-0.6,0.2l-0.3,0.6
		c0,0.3-0.1,0.7-0.3,1.2c-0.2,0.5-0.3,0.9-0.3,1.1c0.3-0.2,0.8-0.8,1.5-1.6C39.5,116.8,39,117.4,37.9,118.1L37.9,118.1z M37.1,127.3
		L37.1,127.3c-0.6-1-1-1.9-1-2.9c0-1.1,0-2,0.1-2.5c0-0.2,0.1-0.8,0.2-1.6c0.1-0.9,0.3-1.4,0.4-1.6c0.1-0.3,0.3-0.9,0.4-1.8
		c0.1-1,0.4-1.6,0.7-2c0.8-0.9,1.8-1.3,3.1-1.3c0.7,0,1.8,0.2,3.3,0.5c1.5,0.3,2.4,0.6,2.8,0.9c0.6,0.6,1.1,1.1,1.4,1.3
		c0.3,0.3,0.6,0.7,0.9,1.3c0.3,0.6,0.5,1.1,0.5,1.7c0,1.4-0.3,2.3-0.8,2.9c0,0.3-0.4,1.2-1.3,2.8c-0.9,1.6-1.5,2.7-2,3.4v0.1
		c0,0-0.1,0.1-0.2,0.2c-0.1,0.2-0.2,0.2-0.2,0.2c-0.2,0.2-0.5,0.2-0.9,0.2h-0.1c-0.2,0.6-0.9,0.9-2.1,0.9h-0.2
		c-0.1,0-0.3-0.1-0.6-0.1c-0.3,0-0.6-0.1-0.9-0.2c-0.3-0.1-0.4-0.2-0.4-0.2c-0.2,0-0.6-0.2-1.4-0.6c-0.7-0.4-1.1-0.7-1.2-0.8h0.1
		l0.7,0.5c0,0-0.1-0.2-0.3-0.4c-0.1-0.2-0.3-0.4-0.4-0.5C37.4,127.4,37.3,127.3,37.1,127.3l0.3,0.2L37.1,127.3z"/>
	<path id="Fill-7" class="st0" d="M69.3,117.3l-0.4,0.1L69.3,117.3L69.3,117.3z M63.8,123.5c0,0,0.2-0.2,0.5-0.6
		c0.3-0.4,0.7-0.8,1-1.2c0.3-0.4,0.6-0.7,0.6-0.8c0.4-0.3,1-0.9,1.7-1.7c0.7-0.8,1.1-1.2,1.1-1.4v-0.1h-0.1l-0.4,0.4v-0.1
		c-0.3,0-0.8,0.6-1.6,1.8v-0.1c-0.2,0-0.5,0.3-1.1,1c-0.6,0.7-0.9,1.1-1.1,1.3L63.8,123.5z M63.7,101.5c-0.3,1.2-0.6,1.7-0.8,1.7
		l-0.1-0.1c0-0.2,0.1-0.4,0.2-0.6c0.1-0.2,0.2-0.5,0.2-0.8c0.4-0.6,0.6-1,0.6-1.3c0-0.2,0-0.4,0-0.7c0-0.3,0-0.5,0-0.7
		c0.3,0.3,0.6,0.6,0.8,0.6C64.3,99.7,64,100.3,63.7,101.5L63.7,101.5z M62.4,98.7l0.2,0.4L62.4,98.7L62.4,98.7z M61,103.7
		c0,0.1,0,0.2,0.1,0.5L61,103.7z M60.4,105.2l0.1,0.2L60.4,105.2L60.4,105.2z M59.9,129c0,0,0.1-0.1,0.3-0.1l-0.6,0.5L59.9,129z
		 M59.3,100.8l-0.4,1.1h0.1C59.2,101.6,59.3,101.2,59.3,100.8L59.3,100.8L59.3,100.8z M58.5,112l0.2-0.5l-0.2,0.1V112z M58.4,103.5
		c0.2,0,0.4-0.2,0.7-0.5c0.3-0.3,0.4-0.6,0.4-0.7c-0.1,0.2-0.5,0.6-1.2,1.1L58.4,103.5z M60.4,103.4l-0.1,0.3c0,0.2-0.1,0.4-0.1,0.6
		c0,0.3-0.1,0.5-0.2,0.7c-0.1,0.2-0.2,0.4-0.3,0.5c-0.2,0.2-0.4,0.9-0.6,1.9c-0.2,1-0.5,1.7-0.8,2c0,0.3-0.2,0.9-0.7,1.8
		c-0.4,0.9-0.7,1.5-0.7,1.7v0.1c0,0,0.2-0.2,0.3-0.5c0.2-0.3,0.4-0.7,0.5-1.1c0.2-0.4,0.3-0.6,0.3-0.6l0.4-0.7l0.1-0.1l0.4-0.3
		l-0.2-0.7l0.4-0.6c0,0.2,0,0.5-0.1,1c-0.1,0.5-0.1,0.9-0.1,1.2v0.1c0-0.1,0.2-0.4,0.4-1c0.2-0.5,0.3-1,0.3-1.3c0-0.2,0-0.3-0.1-0.4
		c0-0.2,0.1-0.4,0.2-0.7c0.1-0.3,0.2-0.6,0.4-1c0.2-0.4,0.3-0.6,0.3-0.8l-0.2,0.1l1-3.6l-1,1.4L60.4,103.4z M56.5,105.2l0.1-0.3
		L56.5,105.2L56.5,105.2z M55.6,107l0.2-0.1l0.2-0.2c0.1-0.1,0.1-0.1,0.2-0.2c0-0.1,0.1-0.1,0.1-0.1c0-0.1-0.1-0.2-0.2-0.3L55.6,107
		z M58.9,103.4c0,0-0.1,0.1-0.3,0.1c-0.2,0.1-0.3,0.2-0.5,0.3c-0.2,0.2-0.3,0.4-0.3,0.7c0,0.3-0.2,0.7-0.5,1.2
		c-0.3,0.5-0.5,0.9-0.5,1.1c-0.1,0.2-0.2,0.6-0.3,1c-0.2,1-0.3,1.5-0.3,1.6c0,0-0.2,0.4-0.5,1.1c-0.3,0.7-0.5,1-0.5,1.1
		c0,0.4-0.1,1.1-0.1,1.9v0.3v0.1c0,0.2,0,0.4-0.1,0.8c-0.1,0.4-0.1,0.7-0.1,0.9v0.3c1.1-2.1,1.6-3.5,1.6-4.1c0-0.3,0.1-0.7,0.4-1
		c0.3-0.3,0.4-0.6,0.5-0.9h0.1c0.2-0.2,0.5-0.8,0.8-1.8c0.3-1,0.5-1.7,0.5-2c0-0.2,0-0.2-0.1-0.2c0,0-0.1,0-0.1,0.1v0.3
		c-0.3,0.2-0.5,0.4-0.5,0.6c0,0.1,0,0.1,0.1,0.2l-0.5,0.4c0,0,0.2-0.5,0.5-1.4c0.1-0.3,0.2-0.5,0.3-0.6c0-0.1,0.1-0.2,0.1-0.3
		s0.1-0.1,0.1-0.1c0,0,0.1,0,0.2-0.1c0.1-0.1,0.2-0.2,0.3-0.3l-0.5,0.2l0.6-1.8L58.9,103.4z M54.7,107.2l0.1-0.2l-0.3,0.2h0.1
		L54.7,107.2z M52.8,123.4c0.1-0.4,0.1-0.6,0.1-0.8v-0.3c-0.3,0.7-0.4,1.2-0.4,1.4c0,0.2,0.1,0.4,0.3,0.5
		C52.7,124,52.8,123.8,52.8,123.4L52.8,123.4z M52.4,119.7v0.8c0.2,0,0.5-0.3,0.8-1c0.3-0.6,0.5-1.1,0.5-1.4c0-0.9,0.1-1.9,0.3-3
		c0.4-1.8,0.6-2.7,0.6-2.8c0.2-1.5,0.3-2.5,0.3-2.8c0-0.2-0.1-0.3-0.2-0.3l-0.1,1.8c-0.2,0.3-0.4,0.5-0.5,0.7
		c-0.1,0.2-0.2,0.5-0.3,0.8c0,0.3-0.1,0.5-0.1,0.7c0,0.2,0,0.4,0,0.8v0.9c-0.3,1.2-0.5,1.9-0.5,2.1l-0.2,0.9l-0.5,0.5l0.1,0.1
		l-0.4,1.4L52.4,119.7z M61.3,100.3h0.2l-0.2,1.4l0.3,0.3c0,0,0,0.2-0.1,0.5c-0.1,0.3-0.1,0.6-0.1,0.8v0.3c-0.3,1.6-0.4,2.4-0.4,2.5
		l-0.3-1.1l0.2,1.5l-0.1,0.3c0,0.1-0.1,0.3-0.2,0.5s-0.1,0.4-0.2,0.5c-0.5,1.6-1,2.8-1.5,3.8c-0.6,1.2-1.1,2.5-1.3,3.9
		c0.7-1.1,1-1.8,1.1-1.8c0,0.2,0,0.5-0.1,1.1c-0.1,0.1-0.1,0.2-0.1,0.2l-0.2,0.4c-0.3,0.5-0.5,1-0.5,1.3c0,0.1,0,0.1,0.1,0.2
		l0.3-0.3l-0.5,1.7l-0.1-0.2c-0.1,0.4-0.5,1.5-1.2,3.2c-0.5,1.1-1.6,1.9-3.1,2.5c0,0.2,0,0.4,0,0.7c0,0.3,0,0.5,0,0.7
		c0,0.3,0.1,0.8,0.2,1.3c0.2,0.6,0.3,0.9,0.5,0.8c-0.2-0.8-0.3-1.3-0.3-1.5c0-0.1,0-0.2,0.1-0.3c0.1,0.6,0.2,1,0.1,1.1v0.1l0.1,0.2
		l0.2,0.4c0.4,0.8,0.9,1.2,1.4,1.2c1.2,0,2.9-1.2,5.3-3.7c0.2-0.2,0.5-0.5,0.8-1c0.3-0.5,0.5-0.7,0.6-0.8c0.6-0.9,1.1-1.3,1.4-1.3
		l1.8-2.2c1.3-1.5,2.1-2.5,2.4-3.1c0.2,0.1,0.5,0.2,1,0.2c0.5,0.1,0.9,0.2,1.2,0.3c0.3,0.2,0.6,0.4,0.9,0.7c-1.2,0.8-2,1.6-2.5,2.3
		l-0.4,0.1l-1.3,0.9l1.4-0.5l-0.2,0.2c-0.7,0.9-1.6,1.8-2.6,2.7H65l-0.1,0.5l-1.7,1.7c0-0.3,0.3-0.8,0.8-1.3
		c0.6-0.6,0.8-0.9,0.8-1.1v-0.1l-0.6,0.6c-0.2,0.2-0.5,0.5-0.9,1c-0.4,0.5-0.6,0.8-0.6,0.8c-0.6,0.8-1.5,1.9-2.8,3.4l-0.8,0.5
		c-0.5,0.3-1.1,0.5-1.7,0.5c-1.3,0-2.7-0.6-4.2-1.7c-0.4-0.1-0.8-0.6-1.1-1.4c-0.5-1-0.7-2.1-0.7-3.3v-0.4c0-0.8,0.1-1.2,0.2-1.3
		l0.3-2.2c0-0.1,0-0.6,0.2-1.5c0.2-0.9,0.4-1.8,0.6-2.7c0.2-1,0.3-1.6,0.3-1.8c0-0.3,0-0.7,0.1-1.1c0.1-0.4,0.2-0.9,0.4-1.4
		c0.2-0.5,0.3-0.9,0.3-1.1l-0.1,0.1c0.4-2.2,0.8-3.9,1.3-5c0-0.3,0.5-1.5,1.4-3.6c0.9-2.1,1.5-3.4,1.8-3.9c0.5-1,1.2-1.4,1.9-1.4
		c0.3,0,0.4,0,0.6,0.1c0,0.2,1,1.2,3,2.9c0,0,0,0.1-0.1,0.2c0,0.1-0.1,0.1-0.1,0.2c-0.2,1.1-0.5,2.3-1.1,3.4l-0.4,0.2l0.2-0.2v-0.4
		l0.2-0.3l0.1-0.7h-0.3c0.4-0.2,0.7-0.5,0.8-1.1l-0.1-0.4l-0.3,0.2l-0.3,0.6l-0.1-0.2l0.1,0.5l-0.1,0.1c0,0.4-0.2,0.8-0.5,1.3
		c0.1-0.2,0.1-0.5,0.1-0.7c0-0.5-0.1-1.1-0.4-1.8L61.3,100.3z"/>
	<path id="Fill-9" class="st0" d="M89.6,118.9l-0.4-0.5l-1,0.8v0.1H88c0,0.5-0.4,1-1.2,1.4c0.1,0,0.1,0,0.1,0.1l-0.3,0.2
		c-0.2,0.2-0.3,0.3-0.3,0.3c0,0.1,0.1,0.1,0.3,0.2c1.1-1,1.8-1.7,2.1-2.1h0.1l0.1-0.2l0.4-0.4L89.6,118.9z M86,120.6l-0.1,0.2
		c0.1,0,0.4-0.3,0.8-0.8c0.4-0.5,0.7-0.8,0.7-0.9L86,120.6z M81.1,116.7c0.1,0,0.3-0.2,0.5-0.7c0.2-0.5,0.4-0.8,0.4-1v-0.1
		c-0.1,0-0.3,0.3-0.4,0.7c-0.1,0.4-0.2,0.7-0.2,0.9L81.1,116.7z M80.9,116.4l-0.2-0.1L80.9,116.4L80.9,116.4z M79.6,120.1
		c0.6-1.6,0.8-2.9,0.8-3.8V116c0,0.2-0.1,0.4-0.3,0.7c-0.2,0.3-0.3,0.6-0.3,0.7c0,0.5-0.3,1.5-0.9,3c-0.3,1-0.6,1.8-0.7,2.3
		c0,0.4,0,0.7-0.1,0.9c0,0,0,0.2-0.1,0.4l-0.1,0.4c0,0.2,0,0.4,0,0.7c0,0.3,0,0.6,0,0.7l0.3,0.1l0.1-0.5l-0.1-0.1l0.2-0.1h-0.1
		c0.3-0.5,0.4-1.1,0.4-1.8C78.8,122.8,79,121.7,79.6,120.1L79.6,120.1z M77.9,122.5c0.3-0.8,0.4-1.4,0.4-1.8c0-0.2,0.1-0.5,0.2-0.9
		c0.1-0.3,0.3-0.7,0.4-1.1c0.2-0.4,0.3-0.7,0.4-0.9l-0.1-0.7l-0.3,0.5c-0.2,0.3-0.3,0.5-0.4,0.5c-0.1,0-0.2-0.1-0.2-0.2
		c0,0.3-0.2,0.8-0.5,1.5c-0.4,0.7-0.5,1.2-0.5,1.6c0,0.2,0,0.3,0.1,0.4l-0.4,0.1c0,0.3,0,0.7-0.1,1.2s-0.1,1-0.1,1.3v0.5l1.2-4.2
		c0,0.5-0.1,1.1-0.3,2c-0.2,0.9-0.3,1.5-0.3,1.9c0,0.2,0,0.4,0,0.7c0,0.3,0,0.5,0,0.7h0.1l0.1,0.3c0,0,0.1-0.1,0.1-0.4
		c0-0.3,0-0.5,0-0.8c0-0.3,0-0.5,0.1-0.5C77.5,123.9,77.7,123.3,77.9,122.5L77.9,122.5z M75.9,118.1L75.9,118.1
		c0.1,0,0.3-0.2,0.5-0.7c0.2-0.5,0.3-0.8,0.3-1c0-0.1,0-0.2-0.1-0.3C76.4,116.3,76.2,117,75.9,118.1L75.9,118.1z M75.6,120.3
		l0.1-0.1L75.6,120.3L75.6,120.3z M74.2,121.8v-0.4l-0.1,0.5L74.2,121.8z M74,121.7l0.1-0.1l-0.3,0.1H74z M75,119.2l0.1-0.7
		c-0.5,0.1-0.9,0.7-1.2,2l-0.2,0.7C74.6,120.1,75.1,119.4,75,119.2L75,119.2z M73.4,123l0.2,0.1L73.4,123L73.4,123z M72.7,121.4
		c-0.1,0-0.3,0.3-0.7,0.9c-0.4,0.6-0.5,1-0.5,1.2C72,123.1,72.4,122.4,72.7,121.4L72.7,121.4z M68.2,116.5l0.3-0.1v-0.1L68.2,116.5z
		 M68.2,116.4L68.2,116.4v0.1V116.4z M67.2,128.1c0.1,0,0.1-0.2,0.1-0.6C67.2,127.9,67.1,128,67.2,128.1L67.2,128.1z M85.6,123
		L85.6,123l-0.3,0.2c0,0-0.1,0.1-0.1,0.2c0,0.2-0.1,0.5-0.3,0.9c-0.3,0.6-0.9,1.2-1.6,1.7c0,0.3-0.2,0.7-0.7,1.4
		c-0.4,0.7-0.8,1-1.1,1v0.2l-2.2,0.5c-1.7-0.5-2.8-1-3.3-1.6c-0.5-0.6-0.8-1.7-0.8-3.3c0-0.8,0.1-1.8,0.3-2.8c0-0.1,0.1-0.3,0.2-0.6
		c0.1-0.3,0.2-0.5,0.2-0.7v-0.2h-0.1c0.2-0.3,0.3-0.6,0.3-0.7c0-0.2-0.1-0.4-0.2-0.6c-0.6,0.6-1,1.3-1,2.1v0.1l0.1-0.1
		c0,0.1-0.2,0.4-0.4,0.8c-0.2,0.4-0.4,0.9-0.4,1.5l-0.4-0.2c-0.2,0.2-0.5,0.7-1,1.5c-0.5,0.8-0.8,1.2-0.8,1.3c0.1,0,0.4-0.4,0.9-1
		c0.4-0.6,0.7-0.9,0.8-0.9c0,0,0.1,0,0.1,0.1c-0.4,0.3-0.8,1.1-1.4,2.3c-0.5,1.2-0.9,2-1.1,2.3c-0.7,1-1.4,1.5-2.2,1.5
		c-0.8,0-1.6-0.4-2.4-1.1c-0.8-0.7-1.2-1.5-1.2-2.2c0-0.5,0.1-1.5,0.3-2.9c0.2-1.4,0.4-2.2,0.5-2.4c0.2-0.5,0.4-1.3,0.6-2.4
		c0.2-1.1,0.4-1.9,0.6-2.4h-0.1v-0.1c0-0.2,0.1-0.4,0.2-0.8c0.1-0.4,0.2-0.6,0.3-0.7l0.1-0.5c0-0.2,0.1-0.3,0.1-0.5
		c0-0.2,0.1-0.3,0.1-0.5l-0.1-0.1c0.1-0.4,0.4-1.2,0.8-2.3c0.4-1.1,0.7-1.7,0.7-1.9c0.5-0.2,1.1-0.2,1.8-0.2c0.9,0,1.4,0.2,1.5,0.6
		H73c-0.1,0.2-0.2,0.5-0.2,0.7l-0.6,2.2l-1.9,6.2l-0.1,0.2l-0.2,1c-0.1,0.3-0.2,0.8-0.4,1.5c-0.2,0.7-0.3,1.1-0.4,1.2
		c-0.3,1.1-0.5,2.2-0.5,3.3v0.5c0.4,0,1.2-1,2.4-3.1v-0.1c0.1-0.2,0.5-0.8,1.2-1.9c0.7-1.1,1.4-2,1.8-2.6l1.5-2.1
		c0.6-0.8,1.3-1.7,2.1-2.5c0,0,0.1-0.2,0.4-0.5c0.2-0.3,0.4-0.5,0.6-0.6c0.2-0.1,0.4-0.2,0.6-0.2c0.3,0,1,0.2,1.9,0.6l2.3-0.6
		c-0.2,0.7-0.3,1.1-0.3,1.3c0,0.1,0,0.2,0.1,0.2l-0.4,1.1h-0.1c-0.1,0.3-0.2,0.5-0.3,0.7c-0.6,1.2-0.9,1.8-1,1.9
		c0,0.7-0.2,1.5-0.6,2.5c-0.4,0.9-0.6,1.5-0.6,1.7c0,0.3-0.1,0.7-0.3,1.2c-0.2,0.6-0.3,0.9-0.4,1.1l0.1,0.1c0.1,0,0.4-0.3,0.8-0.9
		c0.4-0.6,0.9-1.3,1.4-2.1c0.5-0.7,1-1.2,1.3-1.3l-0.1-0.1h0.1c0.5-0.6,1.2-1.4,2.1-2.4c0.9-0.9,1.5-1.4,1.9-1.4
		c1.4,0,2.1,0.2,2.1,0.6l0.4,0.5l0.1,1c0,0.1-0.2,0.3-0.5,0.6c-0.3,0.3-0.5,0.5-0.5,0.6C88.8,119.9,87.7,120.9,85.6,123L85.6,123
		L85.6,123z"/>
	<path id="Fill-11" class="st0" d="M101.7,121l-0.2,0.6l0.5-0.6H101.7z M99.7,103.6l0.2,0.2l0.7-0.2L99.7,103.6z M90.9,110.8l0.7-1
		c0,0.1-0.1,0.4-0.3,0.7c-0.2,0.4-0.4,0.6-0.4,0.6L90.9,110.8z M90.7,108.9c0,0.2-0.1,0.3-0.2,0.5c-0.1,0.2-0.1,0.3-0.1,0.3
		c0.3-0.5,0.4-0.8,0.4-0.9c0-0.2,0-0.2-0.1-0.3C90.8,108.6,90.8,108.7,90.7,108.9L90.7,108.9z M90.8,116.9l0.2-0.8
		c-0.1,0-0.2,0.2-0.4,0.6s-0.3,0.7-0.3,0.8L90.8,116.9z M90.2,102.3c0.3,0,0.4,0,0.5-0.1L90.2,102.3z M92.6,108
		c0.3-1,0.5-1.6,0.5-1.7c0-0.3-0.1-0.5-0.3-0.5c-0.1,0-0.2,0.1-0.4,0.3c-0.1,0.2-0.2,0.4-0.3,0.7c-0.1,0.3-0.2,0.6-0.2,0.8l-0.2,0.8
		c-0.1,0.3-0.1,0.4-0.1,0.5l0.1,0.3l-1.1,1.5l0.1,0.2l-0.5,1.7l1,0.7l0.3-0.7l0.1-1.1c0-0.2,0.1-0.5,0.3-0.8
		c0.2-0.3,0.3-0.6,0.3-0.9C92.1,109.6,92.3,109,92.6,108L92.6,108z M90,121.7l0.1-0.2l-0.1,0.1V121.7z M90,111.4l-0.1,0.1v0.5
		L90,111.4z M90,121.7l-0.3,0.3v0.2L90,121.7z M89,131.6l0.1,0.4v-0.3L89,131.6z M89,102.9h-0.3v0.1L89,102.9z M89.3,123
		c-0.1,0-0.4,0.5-0.8,1.3L89.3,123z M88.3,124.7L88.3,124.7c-0.1,0.1-0.1,0.2-0.1,0.2l0.3-0.4L88.3,124.7z M88.2,123.3L88.2,123.3
		c0.1,0.1,0.3-0.2,0.6-0.6c0.3-0.4,0.6-0.9,0.9-1.5c0.3-0.6,0.5-0.9,0.5-1c-0.6,0.5-1.2,1.2-1.8,1.9L88.2,123.3z M88.2,124.9L88,125
		L88.2,124.9z M87,125.4l0.3-0.5L87,125.4L87,125.4z M86.7,102.5h-0.2H86.7z M81.7,104.4L81.7,104.4l0.2-0.4l-1.3,0.8L81.7,104.4z
		 M91.4,102h0.4c0.1,0,0.2,0,0.3-0.1c0.1-0.1,0.2-0.2,0.2-0.3c0-0.1,0.1-0.2,0.1-0.4c0-0.2,0.1-0.3,0.1-0.3c0.2-0.4,0.7-1.3,1.5-2.8
		c0.6-1,1.2-1.5,1.9-1.5c0.3,0,0.8,0.1,1.3,0.3l0.8,0.9H98c0,0.2,0,0.5,0,0.8c0,0.4,0,0.6,0,0.8c0,0.2,0,0.4-0.1,0.7
		c0,0.3-0.1,0.6-0.1,0.7c0,0.2,0.2,0.4,0.5,0.9c0.4,0,0.9,0,1.6,0.1c0.7,0.1,1.2,0.1,1.6,0.1c0.3,0,0.7,0,1.4,0.1L103,102
		c0.9,0.1,1.4,0.2,1.5,0.2c1.9,0,2.9-0.2,3-0.6l0.5,0.8c0,0.6,0,1.1-0.1,1.5c-0.1,0.3-0.3,0.7-0.6,0.9c-0.4,0.3-0.9,0.4-1.6,0.4
		c-0.3,0-1.3-0.1-2.9-0.2c-1.6-0.2-2.4-0.2-2.6-0.3c-0.4,0.1-0.8,0.2-1.3,0.3c-0.5,0.1-0.9,0.2-1.1,0.3c-0.3,0.1-0.6,0.2-1,0.4
		c-0.4,0.2-0.8,0.5-1.3,0.9l0.1-0.3c0,0,0-0.1-0.1-0.1c-0.1,0-0.2,0-0.3,0.1l-0.3,1.8l-0.1-0.1l-0.3,0.3l-0.2,0.8l-0.4,0.6
		c-0.2,0.3-0.4,0.7-0.5,1.2c0,0.2,0,0.3-0.1,0.3h-0.1c0,0,0,0.1-0.1,0.3c-0.1,0.2-0.2,0.3-0.3,0.5c-0.1,0.2-0.2,0.3-0.2,0.3l0.1,0.1
		c0,0-0.1,0.3-0.4,0.7c-0.3,0.4-0.4,0.7-0.4,0.8H92c0.1-0.1,0.4-0.7,1.1-1.8c-0.4,1-0.6,1.8-0.6,2.4c0,0.3-0.2,0.6-0.5,1
		c-0.3,0.3-0.5,0.6-0.5,0.8c0,0.3-0.2,0.6-0.5,1.1c-0.3,0.5-0.5,0.8-0.5,1.1c0,0.1,0,0.2,0.1,0.3v-0.2l0.1-0.2
		c0.1-0.4,0.3-0.6,0.5-0.6c0.1,0,0.2,0,0.3,0.1c0,0.4-0.1,0.9-0.2,1.4c-0.1,0.5-0.3,0.9-0.5,1.2c-0.2,0.3-0.4,0.8-0.7,1.3
		c-0.3,0.6-0.5,0.9-0.7,1.2c0.1,0,0.3-0.2,0.5-0.6c0.2-0.4,0.4-0.6,0.5-0.7c-0.2,0.1-0.4,0.5-0.7,1.2c-0.2,0.7-0.4,1.2-0.4,1.5v0.1
		c-0.6,0.9-1,1.5-1.4,1.9l-0.3,3.5l0.7,1.1v-0.3l0.1,0.1v-0.9c0,0.1,0.1,0.2,0.4,0.5c0.2,0.2,0.4,0.4,0.4,0.6l0.3,1.1
		c0.2,0,0.8-0.5,1.8-1.5c1-1,1.6-1.5,1.9-1.5c0.1,0,0.4-0.3,0.8-0.8c0.4-0.6,1.2-1.4,2.3-2.5c1.7-1.7,3.4-4,5.2-6.9v0.1
		c0,0,0.1-0.1,0.1-0.2l0.1-0.2c0.8-1.9,1.4-2.9,1.8-2.9c0.4,0,0.8,0.2,1.2,0.5c0.4,0.3,0.6,0.6,0.6,1c0,0.2-0.1,0.4-0.2,0.6l0.6,0.1
		c-0.1,0.1-0.2,0.4-0.4,0.7c-0.1,0.4-0.3,0.7-0.4,1c-0.2,0.3-0.3,0.5-0.4,0.5c-0.3,0-0.5,0-0.6,0.1c-0.1,0.1-0.2,0.3-0.3,0.6
		c-0.2,0.4-0.5,0.8-0.9,1.2c-0.4,0.4-0.9,0.9-1.6,1.4c-0.6,0.5-1,0.8-1.2,1c0.8-1.3,1.9-2.3,3.1-3.1c0.1-0.1,0.2-0.4,0.4-0.9
		c0.2-0.5,0.5-0.9,0.9-1.2c-0.2,0-0.8,0.8-1.9,2.5l0.3-0.7c-0.5,0.7-0.8,1.1-1,1.1c0-0.3,0.4-0.9,1.1-1.8c0.7-0.8,1.1-1.4,1.1-1.7
		c0-0.2,0-0.3-0.1-0.4l-0.4,1l-0.5,0.2c-0.5,0.7-0.7,1.1-0.7,1.3c0,0.2-0.1,0.4-0.3,0.8c-0.2,0.4-0.4,0.5-0.5,0.5l-0.1-0.1
		c-0.1,0-0.2,0.2-0.4,0.6c-0.2,0.4-0.4,0.6-0.5,0.6l-0.1-0.1l-0.1-0.2c-0.1,0-0.2,0.3-0.5,0.8c-0.2,0.5-0.4,0.8-0.5,0.8l-0.1,0.2
		l-0.8,0.9c-0.1,0-0.2,0.2-0.4,0.6c-0.2,0.4-0.4,0.6-0.5,0.6h-0.1l-0.1,0.2l-0.1-0.1c-0.1,0.1-0.4,0.4-0.8,1.1
		c-0.5,0.7-0.7,1-0.7,1.1c0.2,0,0.4-0.1,0.5-0.4c0.1-0.3,0.4-0.4,0.6-0.4c0.5,0,1-0.4,1.3-1.1c0.4-0.7,0.6-1.1,0.8-1.1
		c0.1,0,0.2,0,0.2,0.1l-0.4,0.8v0.1c-0.1,0-0.4,0.4-0.9,1.1c-0.5,0.7-0.8,1.1-0.9,1.1l-0.9,0.6l0.4-0.2c0,0.1-0.2,0.3-0.4,0.6
		c-0.2,0.3-0.4,0.6-0.4,0.6l0.3-0.3l0.1,0.2c0.6-0.5,0.9-0.7,0.9-0.7h0.1c0,0.1,0,0.2-0.1,0.2c-0.6,0.9-1.3,1.8-2.4,2.7
		c-1,0.9-2,1.3-2.9,1.3c-0.5,0-1.3-0.2-2.4-0.7c-1.1-0.5-1.6-0.9-1.6-1.3l0.2,0.1c0-0.4-0.3-0.9-0.8-1.7c-0.4-0.6-0.6-1.1-0.6-1.6
		c0-0.1-0.1-0.2-0.1-0.3v-0.3c-0.3-0.5-0.4-0.8-0.4-1c0-1.4,0.1-2.8,0.4-4.1c0-0.2,0.2-0.8,0.5-1.8c0.3-1,0.5-1.7,0.5-2.2
		c0-0.5,0.1-1.2,0.3-2.1c0.2-1,0.3-1.5,0.3-1.6l0.6-3.2c0.3-2.1,0.7-3.2,1-3.3c0.1-0.2,0.3-0.8,0.5-1.9c0.3-1,0.5-1.8,0.8-2.1
		l-2.4,0.1v-0.1c-0.3,0.1-1.3,0.2-2.9,0.2c-0.2,0-1,0.1-2.2,0.3c-0.2,0-0.3,0.1-0.4,0.1l-3.5-1l0.5-0.6c0,0,0.4-0.2,1-0.5
		c0.6-0.3,1.2-0.5,1.5-0.5c0.1,0,0.3,0,0.6-0.1c0.3-0.1,0.5-0.1,0.6-0.1c0.6-0.1,2.3-0.3,5.3-0.5c1.5-0.1,2.2-0.2,2.2-0.2L91.4,102z
		"/>
	<path id="Fill-13" class="st0" d="M114.4,120.9c-0.2,0.2-0.3,0.3-0.4,0.6l-0.6,0.2L114.4,120.9z M113,120.6l-0.1,0.3v0.1
		c0.1,0,0.4-0.3,0.8-1L113,120.6z M112.1,103.5l-0.2,0.2L112.1,103.5L112.1,103.5z M112.3,121.4c-0.2,0.1-0.5,0.5-0.9,1.1
		c0.1,0,0.3-0.2,0.5-0.5C112.2,121.8,112.3,121.5,112.3,121.4L112.3,121.4z M109.4,113.7L109.4,113.7l-0.4,0.3L109.4,113.7
		L109.4,113.7z M108.1,114.9c-0.3,0.5-0.4,0.8-0.4,1c0,0.1,0,0.1,0.1,0.1L108.1,114.9z M107,114.3l-0.1-0.1L107,114.3L107,114.3z
		 M107,115.8c0-0.1-0.1-0.2-0.2-0.3c-0.1,0.1-0.3,0.2-0.5,0.2l0.3,0.2v-0.2c0.1,0,0.1,0,0.2,0C106.7,115.8,106.8,115.8,107,115.8
		L107,115.8z M107.1,113c-0.4,0.6-0.7,1-0.8,1.4l-0.2,1l0.8-1.7c0.3,0,0.5-0.2,0.7-0.6c0.2-0.4,0.3-0.7,0.3-1c0-0.1,0-0.2-0.1-0.2
		l-0.1,0.1C107.8,112.1,107.6,112.4,107.1,113L107.1,113z M106.2,101.9h0.2c0.1,0,0.4-0.1,1.1-0.4c0.6-0.3,1.3-0.7,2.1-1
		c0.7-0.3,1.3-0.5,1.5-0.5c0.1,0,0.2,0,0.3,0.1h0.1c0,0.2,0.3,0.6,0.9,1.1l0.8,0.9l-1.3,2.2c-0.3,0.1-0.8,0.3-1.5,0.5
		c-0.3-0.1-0.6-0.1-0.9-0.2c-0.3-0.1-0.5-0.1-0.6-0.1c-0.1,0-0.2,0-0.4-0.1c-0.2-0.1-0.3-0.1-0.3-0.1c0,0-0.1-0.1-0.3-0.1
		c-0.1-0.1-0.2-0.2-0.3-0.2c0-0.1-0.2-0.2-0.4-0.4l-0.6-0.5L106.2,101.9z M105.2,122.5c0-0.5,0.3-1.4,0.8-2.5c0.5-1.1,0.7-2,0.7-2.6
		l-0.1-0.1l-0.1,0.1l0.3-0.9l-0.2-0.2l-0.1-0.4c0,0.1-0.2,0.3-0.4,0.7c-0.2,0.3-0.3,0.6-0.3,0.7v0.1h0.1c-0.8,1-1.2,2.2-1.2,3.5
		c-0.1,0.1-0.3,0.8-0.4,2.1c0,0,0,0.1-0.1,0.3c0,0.2-0.1,0.2-0.1,0.3c0,0.2,0,0.5,0,0.9c0,0.4,0,0.7,0,0.9
		C104.8,124.5,105,123.5,105.2,122.5L105.2,122.5z M103.3,125.5c0,0-0.1,0.1-0.1,0.2L103.3,125.5z M102.7,125.6c0,0.1,0,0.2,0,0.3
		c0,0.5,0.2,0.9,0.5,1.3c0-0.1-0.1-0.4-0.2-0.9c-0.1-0.5-0.2-0.8-0.3-0.9C102.7,125.4,102.7,125.5,102.7,125.6L102.7,125.6z
		 M103.7,123.7c0-0.1,0-0.4,0.1-1c0-0.6,0.2-1,0.4-1.3l0.1-0.9c0-0.2,0.1-0.4,0.3-0.7c0.2-0.3,0.3-0.6,0.3-0.7l0.3-1.8
		c-0.3,1.1-0.5,1.6-0.7,1.7c0-0.2,0.2-0.6,0.4-1.2c0.2-0.6,0.3-1,0.3-1.3c0-0.1,0-0.1-0.1-0.1c-0.1,0-0.3,0.2-0.5,0.5
		c-0.2,0.4-0.3,0.6-0.3,0.8c0,0.1,0,0.2,0.1,0.2c-0.1,0.6-0.6,1.9-1.4,3.9l-0.1,0.1v0.2l-0.1,0.7l-0.3,1.9c0.2,0,0.4-0.7,0.6-2.1
		c0.2-1.4,0.5-2.1,0.7-2.1c0,0.3-0.1,0.7-0.2,1.3c-0.1,0.6-0.2,1-0.2,1.3v0.1c0,0.1,0,0.2-0.1,0.4c0,0.2-0.1,0.3-0.1,0.3
		c0,0.4-0.1,0.9-0.1,1.7v0.1L103.7,123.7z M113.2,122.3l-1.3,1.9c0,0,0.1,0,0,0l-0.1,0.1l-0.5,0.5c0,0-0.2,0.2-0.4,0.4
		c-0.2,0.2-0.5,0.4-0.7,0.7c-0.2,0.2-0.3,0.4-0.3,0.4l-1.1,1.2c-0.7,0.8-1.5,1.3-2.2,1.7c-2.1-0.4-3.6-1.1-4.5-2
		c-0.5-0.5-0.7-1.3-0.7-2.5c0-1,0.3-2.8,1.1-5.3c0.7-2.5,1.3-4.1,1.9-4.9c0.1-0.2,0.2-0.5,0.3-1c0.1-0.5,0.3-0.8,0.4-0.9
		c0.1-0.4,0.4-1.2,0.9-2.3c0.5-1.1,0.8-2,0.9-2.6c0.7,0,2,0.6,3.8,1.9l0.2,0.7c-0.2,1.1-0.4,1.8-0.4,2c-0.4,1.1-0.8,1.9-1.2,2.4
		l0.3-0.2l-0.4,1.3l-0.3,0.5c-0.6,0.9-1,1.7-1.1,2.4v0.2c0,0.1-0.1,0.4-0.3,0.9c-0.2,0.5-0.3,0.9-0.3,1.2c0,0.2-0.1,0.4-0.3,0.7
		c-0.2,0.3-0.3,0.5-0.3,0.7v0.2c-0.3,0.3-0.5,1.1-0.6,2.3c2.6-2.3,3.9-3.6,3.9-3.9v-0.2c1.2-1.1,2-2,2.5-2.7c0.2-0.3,0.5-0.6,1-0.9
		c0.5-0.4,0.8-0.5,1.1-0.5c0.7,0,1.4,0.2,2,0.5h-0.1v0.2l0.9,0.3h-0.1v0.1l-0.2,0.2l-0.5,1.7l-0.4,0.3l-0.1,0.2l-1.3,0.9
		c0.3-0.3,0.5-0.4,0.6-0.5l-0.1-0.1l0.5-0.3l-0.1-0.1h0.1l0.1-0.3l0.1,0.1v-0.2l0.1-0.1l0.1,0.1l0.4-0.7l-1.3,0.6
		c0,0.3-0.1,0.6-0.3,0.9c-0.2,0.3-0.4,0.5-0.7,0.8c-0.3,0.3-0.5,0.5-0.6,0.7C113.2,122,113.2,122.2,113.2,122.3L113.2,122.3z"/>
	<defs>
		<filter id="Adobe_OpacityMaskFilter" filterUnits="userSpaceOnUse" x="111.6" y="102.4" width="44.5" height="31.9">
			<feColorMatrix  type="matrix" values="1 0 0 0 0  0 1 0 0 0  0 0 1 0 0  0 0 0 1 0"/>
		</filter>
	</defs>
	<mask maskUnits="userSpaceOnUse" x="111.6" y="102.4" width="44.5" height="31.9" id="mask-2_1_">
		<g class="st1">
			<polygon id="path-1_1_" class="st2" points="111.6,102.4 156.1,102.4 156.1,134.2 111.6,134.2 			"/>
		</g>
	</mask>
	<path id="Fill-15" class="st3" d="M155.3,119h0.2v0.1v0.1L155.3,119z M154.6,118.9v0.5l-0.1-0.2l-0.1-0.8c0.3,0.1,0.6,0.3,0.9,0.6
		L154.6,118.9z M154.4,118.1v0.3c0,0-0.1,0-0.2-0.1L154.4,118.1z M152.2,126.3l0.5-0.7L152.2,126.3L152.2,126.3z M151.3,123.2
		l0.1-0.1l-0.3,0.1H151.3z M144.6,114.5L144.6,114.5l0.1-0.2L144.6,114.5z M144.4,115.3l0.1,0.2L144.4,115.3L144.4,115.3z
		 M144.2,119.2l-0.2-0.5c0,0-0.1,0.1-0.1,0.3C143.9,119.2,144,119.2,144.2,119.2L144.2,119.2z M143.7,122.7c0.1-0.3,0.1-0.5,0.1-0.7
		L143.7,122.7z M143.6,126.7l0.1,0.2L143.6,126.7L143.6,126.7z M143.4,125.5l-0.1,0.9h0.1L143.4,125.5z M142.6,122l-0.2,0.2l0.2,1.2
		c-0.1,0-0.2,0.1-0.2,0.4c0,0.2,0,0.5,0,0.8c0,0.3,0,0.4-0.1,0.5l0.2-2.9l-0.1-1.1L142.6,122z M143.3,123l-0.3-0.2
		c0.5-3.3,0.7-5.2,0.7-5.8l0.1-3.1c0-0.4,0.1-1,0.3-1.9c0.2-0.9,0.3-1.5,0.3-2V110c-0.3,1-0.6,1.4-0.8,1.4c-0.1,0-0.2,0.2-0.3,0.6
		c0,0.4-0.1,0.9-0.2,1.4c-0.1,0.5-0.2,0.9-0.4,1.1h-0.1l0.1,0.2l-0.4,1.9c-0.2,1-0.3,1.8-0.3,2.2c0,0.1,0,0.4,0,0.8
		c0,0.4-0.1,0.8-0.1,0.9c0,0.2-0.1,0.5-0.3,1l0.1,0.4l0.2,0.1c0,0.2,0,0.4-0.1,0.7c0,0.3-0.1,0.6-0.1,0.8c0,0.3,0,0.9,0,1.5
		c0,0.7,0,1.2,0,1.5v0.9l0.1-0.1l0.3,1.6h0.1c0-0.3-0.1-0.6-0.1-1.1c0-0.3,0-0.6,0.1-0.8c0.2,0.8,0.3,1.6,0.3,2.3
		c0.1,0,0.2,0.3,0.4,0.7c0.1,0.5,0.2,0.8,0.2,0.9l0.6,0.9c0-0.2-0.1-0.5-0.2-0.9c-0.1-0.4-0.2-0.7-0.2-0.9v-0.6l-0.2-0.1l0.1-0.1
		c-0.1-0.2-0.2-1.7-0.2-4.5c0-0.7,0.1-1.1,0.3-1.1c0,0,0.1,0.1,0.3,0.2L143.3,123z M136.5,123.5c-0.6,0.7-0.9,1.3-0.9,1.7
		c0.1,0,0.3-0.2,0.5-0.7c0.2-0.5,0.3-0.7,0.4-0.7V123.5z M133.9,116.4l0.1,0.3c0-0.3,0.1-0.7,0.3-1.1L133.9,116.4z M133.7,119.3
		l0.1,0.2L133.7,119.3L133.7,119.3z M132.7,124.1l0.1,0.1L132.7,124.1L132.7,124.1z M132.6,115.7l0.2,0.1L132.6,115.7L132.6,115.7z
		 M132.5,123l0.1-0.2L132.5,123L132.5,123z M132.5,122.5l0.2-0.5l-0.2,0.3V122.5z M132.7,116h-0.2l0.3,2.1h0.1l0.6-2V116
		c0,0-0.1,0.1-0.2,0.3l-0.2,0.4c-0.1,0.1-0.1,0.2-0.2,0.2c0,0-0.1,0-0.2-0.1L132.7,116z M132.3,119.3l0.1,0.1v0.2
		c0.2,0,0.3-0.3,0.3-0.9c0-0.1,0-0.2-0.1-0.2L132.3,119.3z M132.5,125.5l-0.3-0.2v0.1L132.5,125.5z M132.3,121.9
		c0-0.6,0.1-0.9,0.4-0.9c0,0,0.1,0,0.2,0.1l0.1-0.1c0-0.1,0.1-0.2,0.1-0.4c0-0.2,0.1-0.4,0.1-0.5c0.1-0.2,0.1-0.3,0.2-0.3h-0.1
		c0.2-0.4,0.3-0.8,0.3-1.1c0-0.1,0-0.1-0.1-0.1c-0.2,0-0.3,0.1-0.3,0.4l-0.1,0.9l-1.2,1.2L132.3,121.9z M132,124.9
		c-0.1-0.8-0.1-1.4,0.2-1.8h-0.1c-0.1,0-0.2,0.3-0.4,0.9c-0.1,0.6-0.2,1.1-0.2,1.4v0.3L132,124.9z M131.7,126.2
		c-0.2,0.8-0.3,1.4-0.3,1.7v0.1c0.3,0,0.4-0.6,0.4-1.8H131.7z M130.9,128.7l-0.1-0.5l-0.3,0.2L130.9,128.7z M130.9,127.9
		L130.9,127.9L130.9,127.9l0.1-0.5c0-0.3,0-0.8,0.1-1.5c0.1-0.7,0.1-1.1,0.1-1.3c0-0.8,0.2-1.5,0.4-2.3c0,0,0.1-0.2,0.2-0.6l0.1-0.5
		c0-0.1,0-0.3-0.1-0.6c0-0.3-0.1-0.5-0.1-0.6c0-1.4,0.2-2.8,0.6-4c-0.4,0.2-0.7,1-0.8,2.5c0,0.2-0.1,0.4-0.2,0.9
		c-0.1,0.4-0.2,0.7-0.2,1c0,0.2,0,0.4-0.1,0.6c0,0.3-0.1,0.5-0.1,0.6c0,0.3,0.1,0.5,0.3,0.7c-0.2,0.3-0.3,0.8-0.4,1.3
		c-0.1,0.5-0.2,1-0.3,1.3c0,0.4-0.1,0.9-0.2,1.5c-0.1,0.6-0.1,1-0.2,1.2L130.9,127.9L130.9,127.9z M130.4,116l0.2-0.1L130.4,116
		L130.4,116z M123.7,124.4c0.3,0,0.5-0.3,0.8-1c0.3-0.6,0.4-1.1,0.4-1.4c0,0,0-0.1-0.1-0.1C124.5,121.9,124.1,122.8,123.7,124.4
		L123.7,124.4z M125.5,121.3c-0.1,0.3-0.3,0.8-0.6,1.4c-0.3,0.6-0.5,1.2-0.7,1.7c-0.2,0.5-0.5,0.9-0.8,1.3c-0.1,0.2-0.3,0.4-0.5,0.9
		c-0.2,0.4-0.4,0.7-0.7,1c-0.1,0.1-0.3,0.4-0.6,0.9c-0.3,0.5-0.4,0.8-0.4,1v0.1h0.1c0.4-0.6,0.7-1,0.9-1c0,0,0.3-0.4,0.7-1.1v0.1
		c0,0,0.2-0.2,0.4-0.6c0.2-0.4,0.5-0.8,0.8-1.2c0.3-0.4,0.5-0.7,0.6-0.8c0.7-0.5,1.1-1.7,1.1-3.4v-0.2L125.5,121.3z M116,117.4
		l0.2,0.1C116.1,117.4,116.1,117.4,116,117.4L116,117.4z M115.1,121.8l-0.3,0.6v-0.1L115.1,121.8z M113.8,121.3
		c-0.2,0.6-0.3,0.9-0.4,0.9c0.7-0.2,1-0.8,1-1.8c0.1,0,0.2-0.1,0.3-0.3c0.1-0.2,0.2-0.3,0.3-0.6l0.2-0.5c-0.3,0.3-0.6,0.7-0.8,1
		C114.2,120.4,114,120.7,113.8,121.3L113.8,121.3z M114.6,131.1c1-0.7,1.9-1.3,2.5-1.8c0.6-0.5,1.1-1,1.4-1.5c2.3-3.3,3.4-5.3,3.4-6
		c0-0.2-0.1-0.5-0.2-0.9c-0.1-0.4-0.2-0.7-0.2-0.8c-0.2,0-0.5,0.1-0.9,0.2c-0.4,0.1-0.7,0.2-1,0.2h-0.6l-1-0.6c-0.3,0-0.6,0.2-1,0.7
		c-0.4,0.5-0.8,0.8-1.3,1.1c-0.3,0.8-0.6,1.4-1,1.9c0-0.3,0.3-0.9,0.8-2c0.6-1.1,0.8-1.8,0.8-2.1l-0.3,0.1h-0.8l1.4-1.5
		c-0.1,0-0.2,0.1-0.4,0.2c-0.2,0.1-0.4,0.2-0.6,0.3c-0.2,0.1-0.3,0.2-0.4,0.3l-0.2,0.2c0,0.2-0.2,0.5-0.4,1
		c-0.2,0.5-0.3,0.8-0.3,1.1v0.1c0.6-0.8,1.1-1.2,1.4-1.3c0,0.3-0.7,1.2-2.2,2.5l0.1,0.1c-0.7,0.8-1.2,1.2-1.3,1.3l0.3,0.3l1-0.2
		l-0.8,2.2c-0.1,0.1-0.2,0.2-0.2,0.3c0,0.1,0,0.1,0.1,0.1c0.1,0,0.3-0.1,0.7-0.2l0.2,0.1c0.4-0.7,0.8-1.5,1.1-2.5l-0.4,1.4l-0.2,0.2
		c-0.1,0.2-0.1,0.3-0.1,0.4c-0.3,0.6-0.4,1.1-0.4,1.4h0.1c-0.3,0.6-0.4,1.7-0.4,3.3c0.2-0.1,0.5-1,0.8-2.7c0.3-1.7,0.7-2.5,1-2.5
		v0.1l-0.1,0.1l-0.3,1.1c-0.4,1.3-0.7,2.2-0.8,2.6L114.6,131.1z M151.8,124.1l-0.6,1.3l0.1,0.9c-0.1,0.1-0.2,0.3-0.3,0.8
		c-0.1,0.5-0.2,0.8-0.4,1c0.1,0,0.2-0.1,0.4-0.4c0.2-0.3,0.3-0.6,0.5-0.9c0.2-0.3,0.3-0.5,0.3-0.6h0.1c0.9-1.3,1.9-3.1,3-5.4
		c0-0.1,0-0.2,0.1-0.4c0.1-0.2,0.1-0.4,0.3-0.6c0.1-0.2,0.2-0.4,0.2-0.5l0.6,0.6H156c-0.1,0.6-0.4,1.3-0.9,2
		c-0.5,0.7-0.7,1.2-0.8,1.5c0,0.2-0.2,0.6-0.5,1.2c-0.3,0.6-0.5,0.9-0.5,0.9v-0.1l-0.3,0.4c-0.3,0.7-0.8,1.5-1.3,2.3l-0.1,0.1
		c-0.5,0.8-0.7,1.6-0.7,2.3l-0.1,0.1c-0.2,0-0.3,0.2-0.5,0.6c-0.2,0.4-0.4,0.6-0.6,0.6c-0.8,1.7-1.7,2.5-2.8,2.5c0,0-0.1,0-0.3,0
		c-0.1,0-0.3,0-0.4,0c-0.5,0-1.2-0.2-2.2-0.7c-1-0.5-1.5-0.9-1.5-1.2v-0.1c-0.3,0-0.6-0.6-0.9-1.8c-0.3-1.1-0.4-2.9-0.4-5.3
		c0-0.3,0-0.6,0.1-1.1c0.1-0.5,0.1-0.9,0.1-1.1c0-1.4,0.1-2.7,0.3-3.8c0.3-2.1,0.5-3.4,0.5-3.7c0-0.4-0.1-0.8-0.2-1.1l-0.8,1.2
		c0.4-0.7,0.9-2,1.4-3.8c0.6-1.8,0.8-3.2,0.8-4c0,0,0-0.2,0.1-0.4c0.1-0.2,0.1-0.4,0.1-0.4c0.2-0.5,0.3-1.1,0.3-1.7v-0.2l-0.6,0.5
		L143,106l0.1-0.5c-0.1,0-0.3,0.7-0.6,1.9h-0.3l0.1,0.2h-0.3c-0.6,1.6-1,2.7-1.2,3.1c-0.1,0.2-0.3,0.6-0.6,1.1
		c-0.3,0.5-0.6,1-0.8,1.4c-0.2,0.5-0.3,0.9-0.2,1.2h-0.1l0.1,0.1l0.4,0.4c0,0.1,0,0.3-0.1,0.5c-0.1,0-0.2-0.2-0.2-0.5l-0.1-0.1
		l-0.8,0.9l-0.2,1c-0.4,0.5-0.8,1.1-1.3,1.9v0.2c-0.2,0.3-0.3,0.7-0.4,1.3l-0.1-0.1c-0.3,0.6-0.3,1.3-0.3,1.8l-1.1,1.8L135,125h0.1
		l0.1-0.1v-0.1c0.1-0.1,0.2-0.1,0.2-0.2c0.2-0.1,0.3-0.2,0.4-0.5c0.3-0.5,0.5-1,0.5-1.5v-0.2l1-1.9c0.2,0,0.4-0.2,0.5-0.6
		c0.1-0.4,0.3-0.6,0.4-0.6c0.1,0,0.1,0,0.1,0.1c0,0.3-0.3,1-1,2.1l0.1,0.6l0.8-1.2l0.1-0.4c0.1-0.5,0.3-1,0.6-1.5
		c0.7-1.2,1.1-1.8,1.3-1.8h0.1v0.1c0,0-0.2,0.3-0.4,0.9c-0.2,0.5-0.4,0.9-0.5,1c0,0.1-0.3,0.8-0.9,2.1c-0.1,0.2-0.2,0.4-0.5,0.8
		c-0.2,0.4-0.4,0.6-0.5,0.8c-0.6,1.5-1,2.4-1,2.7c0,0.2-0.2,0.8-0.7,1.7c-0.5,1-0.7,1.7-0.7,2.3c0,0.2-0.1,0.4-0.3,0.6
		c-0.2,0.2-0.3,0.3-0.5,0.3l-0.8,0.2c-0.3,0.1-0.5,0.1-0.6,0.1l-0.3,0.1c-0.2,0.1-0.3,0.1-0.3,0.1c-1.7,0-2.5-0.8-2.5-2.4
		c0-0.5,0.1-1.7,0.3-3.7v-0.1c0-0.1,0.1-0.9,0.3-2.4c0.2-1.5,0.4-2.3,0.5-2.6c0.1-0.3,0.2-1,0.3-1.9c0.1-0.9,0.2-1.6,0.4-1.9
		c0,0-0.2,0-0.5,0.1c-0.3,0.1-0.5,0.1-0.7,0.1c-0.2,0-0.4,0.1-0.6,0.2c-0.2,0.1-0.3,0.2-0.4,0.4h0.1c-0.3,0.2-0.7,0.2-1,0.2
		c-0.3,0-0.4-0.1-0.3-0.2c-0.9,0-1.3,0.1-1.3,0.3c0,0.1,0.2,0.2,0.6,0.2c-0.3,0.1-0.7,0.2-1.4,0.3c-0.7,0.2-1.2,0.3-1.5,0.4
		c0,0.2,0.3,0.7,1,1.4c0.6,0.7,1,1.2,1,1.5c0,1.2-0.6,2.8-1.7,4.6c-1.1,1.8-2.2,3.4-3.4,4.6c-0.2,0.2-0.4,0.5-0.6,1
		c-0.3,0.5-0.5,0.8-0.8,1.1c-0.3,0.2-0.7,0.4-1.2,0.4c-0.7,0.6-1.6,0.9-2.6,0.9c-0.5,0-1.1-0.2-1.8-0.5c-1.8-0.7-2.8-2-2.8-4.1
		c0-3.2,0.8-6.1,2.5-8.7c0.1-0.2,0.3-0.7,0.6-1.5c0.3-0.8,0.5-1.4,0.8-1.7l0.6-0.8l0.5,1l0.1,0.2l0.7-1.5l1.2-0.3
		c0.1-0.2,0.6-0.3,1.5-0.3h0.5v0.1c0.4,0,1.4-0.1,2.9-0.4c1.5-0.3,2.4-0.4,2.8-0.5c0.6,0,1.6-0.2,2.9-0.4c1.3-0.2,2.3-0.4,3-0.4
		c0.5-1.9,0.7-3.3,0.7-4.1c0-0.5,0-0.9-0.1-1.1h-0.1l0.9-0.4c2.2,0,3.3,0.6,3.3,1.7c0,0.2-0.1,0.4-0.2,0.7c-0.1,0.3-0.2,0.5-0.2,0.6
		c-0.2,1.6-0.4,2.9-0.6,3.9c0,0-0.1,0.1-0.1,0.2c-0.2,0.5-0.3,1.3-0.5,2.3c-0.4,1.8-0.7,2.9-1,3.2l0.3-0.9c0.1-0.5,0.3-1.3,0.4-2.3
		c0.2-0.4,0.3-0.8,0.3-1.1c0-0.2,0.1-0.6,0.1-1c0.3-1.3,0.4-2.2,0.4-2.6l-0.3,0.6h0.1l-0.2,1.2c0,0.3-0.2,0.6-0.5,1.1
		c-0.3,0.4-0.5,0.8-0.5,1l-0.1,1c0,0.1,0,0.4-0.1,0.7c-0.1,0.4-0.1,0.6-0.1,0.8c0,0.1,0,0.3,0.1,0.6c0,0-0.2,0.4-0.4,1
		c-0.1,0.3-0.2,0.9-0.3,1.6l-0.4,0.4l0.6-0.1c-0.1,0.2-0.1,0.3-0.1,0.3l-0.4,1.1l0.2-0.1l-0.3,1.3c0.2-0.2,0.4-0.6,0.7-1.2
		c0.3-0.6,0.4-1,0.6-1.2c0.1-0.1,0.5-0.9,1.2-2.3l2.5-5.3c0.2-0.4,0.5-1.2,1.1-2.3c0.6-1.1,1-2,1.3-2.7c0-0.1,0.4-1,1.1-2.6
		c0.7-1.6,1.2-2.8,1.6-3.6c0.6-1,1-1.5,1.3-1.5c0.3,0,0.7,0.1,1.1,0.3c0.4,0.2,0.9,0.4,1.4,0.7c0.5,0.3,0.8,0.5,1.1,0.5l0.3,0.3
		c-0.3,0-0.4,0.4-0.4,1.1l-0.1,0.4l-0.1-0.2c-0.1,0-0.3,0.3-0.4,0.8c-0.2,0.5-0.3,0.9-0.3,1.1v0.4l-0.1,0.2l-0.4,0.7
		c-0.6,1.4-0.8,2.2-0.8,2.5l0.3,0.2l-0.4,1v0.2c-0.1,0.5-0.2,1.2-0.2,2.1c0,0.9-0.1,1.5-0.1,1.9c0,0.2-0.1,0.6-0.3,1
		c-0.2,0.4-0.3,0.8-0.3,1c0,0.1,0,0.3-0.1,0.6c0,0.3-0.1,0.5-0.1,0.6c0,0.5-0.1,1.1-0.1,1.9c0,0.8-0.1,1.6-0.1,2.2
		c0,0.7-0.1,1.3-0.2,1.9l0.1,0.1c0,0.3,0,0.7,0,1.2c0,0.5,0,0.9,0,1.2v0.9l-0.3,0.3l0.7,0.1l-0.1,0.3l0.4,0.6l-0.1,0.4
		c0.3,0.9,0.5,1.3,0.6,1.3c0.4,0,1.4-1.2,2.8-3.5c0.1-0.2,0.4-0.7,0.8-1.3c0.4-0.6,0.7-1.1,0.9-1.5l0.1-0.5c0-0.2,0.1-0.3,0.2-0.5
		c0.1-0.2,0.2-0.3,0.3-0.5c0.1-0.2,0.2-0.3,0.3-0.4c0,0,0.1-0.2,0.2-0.5c0.1-0.3,0.2-0.6,0.4-0.8c0.1-0.2,0.2-0.4,0.2-0.4
		c0.1-0.5,0.4-1.1,0.9-1.9c0.4-0.8,0.7-1.4,0.9-1.7c0.2-0.3,0.4-0.5,0.8-0.5c0.1,0,0.2,0,0.3,0.1l-0.6,0.8l-0.1-0.1l-0.2,0.1
		l0.1,0.8l-0.3,0.1l0.3,0.9l-0.8-0.3v0.2l-0.3,0.6C152.3,122,152.1,122.9,151.8,124.1L151.8,124.1z"/>
</g>
<g id="BL">
	<defs>
		<filter id="Adobe_OpacityMaskFilter_1_" filterUnits="userSpaceOnUse" x="2.1" y="1" width="72.7" height="88.6">
			<feColorMatrix  type="matrix" values="1 0 0 0 0  0 1 0 0 0  0 0 1 0 0  0 0 0 1 0"/>
		</filter>
	</defs>
	<mask maskUnits="userSpaceOnUse" x="2.1" y="1" width="72.7" height="88.6" id="mask-4_1_">
		<g class="st4">
			<polygon id="path-3_1_" class="st2" points="2.1,1 74.9,1 74.9,89.6 2.1,89.6 			"/>
		</g>
	</mask>
	<path id="Fill-18" class="st5" d="M25.2,84.1h14.4c6.8,0,12-1.4,15.5-4.3c3.5-2.9,5.3-7.6,5.3-14.1c0-6.3-1.7-11-5.1-14.2
		c-3.4-3.2-8.8-4.8-16.2-4.8H25.2V84.1z M38.6,41.3c3.2,0,6-0.5,8.4-1.4c2.3-0.9,4.3-2.2,5.8-3.8c1.5-1.6,2.6-3.6,3.4-5.8
		c0.7-2.3,1.1-4.8,1.1-7.5c0-2.9-0.4-5.4-1.3-7.5c-0.8-2.1-2.1-3.8-3.7-5.1c-1.6-1.3-3.7-2.3-6.1-2.9c-2.4-0.6-5.2-0.9-8.4-0.9H25.2
		v34.8H38.6z M12.2,10.1L2.1,3.5V1h38.8c5.3,0,9.9,0.6,13.7,1.7c3.8,1.1,6.9,2.6,9.4,4.5c2.4,1.9,4.2,4.1,5.4,6.7
		c1.2,2.5,1.8,5.2,1.8,8c0,2.6-0.4,5-1.3,7.3c-0.9,2.3-2.2,4.4-3.8,6.2c-1.7,1.8-3.8,3.4-6.3,4.8c-2.5,1.3-5.4,2.4-8.6,3
		c3.9,0.5,7.3,1.3,10.2,2.7c3,1.3,5.4,3,7.5,5c2,2,3.5,4.3,4.5,6.8c1,2.5,1.5,5.3,1.5,8.1c0,4.2-0.8,7.8-2.5,10.8
		c-1.7,3-4.1,5.4-7.3,7.4c-3.2,1.9-7.1,3.3-11.7,4.2c-4.6,0.9-9.9,1.4-15.7,1.4H2.1v-2.4l10.1-6.7V10.1z"/>
	<polygon id="Fill-21" class="st6" points="85.4,1 119.9,1 119.9,3.4 108.5,10.1 108.5,84.1 133.9,84.1 147.4,71 149.8,71.1 
		148,89.6 85.4,89.6 85.4,87.2 95.5,80.5 95.5,10.1 85.4,3.4 	"/>
</g>
</svg>
